<svg width="8951" height="2711" viewBox="0 0 8951 2711" fill="none" xmlns="http://www.w3.org/2000/svg">
<rect width="3900" height="90" transform="matrix(-1 0 0 1 8950.5 2620.5)" fill="#FCD82E"/>
<rect x="0.5" y="0.5" width="5050" height="2710" fill="#FCD82E"/>
<path d="M800.5 1590.5L500.5 1650.5C500.5 1683.65 505.456 1716.61 515.204 1748.29L520.5 1765.5L540.992 1809.41C550.643 1830.09 562.175 1849.85 575.441 1868.42C595.385 1896.34 619.089 1921.37 645.883 1942.81L651.413 1947.23C670.767 1962.71 691.442 1976.47 713.201 1988.34L754.719 2010.98C778.533 2023.97 803.366 2035 828.97 2043.96L852.189 2052.09C877.688 2061.02 903.868 2067.86 930.472 2072.55L940.112 2074.26C963.674 2078.41 987.502 2080.95 1011.42 2081.47C1059.72 2082.54 1095.34 2082.16 1150.5 2080.5L1175.87 2076.88C1205.56 2072.63 1234.81 2065.73 1263.27 2056.24L1295.6 2045.47C1325.47 2035.51 1354.33 2022.76 1381.79 2007.38L1418.32 1986.92C1449.6 1969.41 1478.06 1947.28 1502.74 1921.3C1540.73 1881.31 1568.94 1833.07 1585.16 1780.35L1587.02 1774.3C1595.98 1745.2 1601.73 1715.15 1602.77 1684.72C1603.79 1655.09 1603.53 1629.45 1601.56 1600.97C1598.78 1560.81 1586.68 1521.97 1569.37 1485.63C1553.54 1452.39 1532.92 1421.66 1508.15 1394.42L1498.17 1383.43C1463.29 1345.07 1422.38 1312.66 1377.06 1287.48L1310.28 1250.38C1280.51 1233.84 1249.12 1220.38 1216.6 1210.22L1105.5 1175.5L1033.79 1149.08C1018.28 1143.37 1003 1136.88 989.045 1128.03C968.536 1115.03 953.579 1101.52 937.908 1080.82C925.793 1064.82 920.5 1044.84 920.5 1024.77C920.5 1008.8 923.63 992.727 932.194 979.246C940.182 966.671 948.878 956.861 959.718 948.324C989.826 924.609 1030.25 920.5 1068.57 920.5H1070.87C1093.88 920.5 1117.12 922.301 1138.74 930.168C1148.83 933.838 1158.24 938.105 1167.76 943.38C1205.26 964.151 1236.46 996.53 1253.08 1036.04C1257.25 1045.94 1261.22 1057.05 1265.5 1070.5L1560.5 950.5L1547.26 916.442C1532.82 879.31 1513.53 844.252 1489.89 812.178C1467.06 781.186 1440.36 753.24 1410.43 729.018L1393.97 715.691C1365.11 692.325 1333.39 672.723 1299.58 657.356C1260.41 639.549 1218.82 627.61 1176.17 621.922L1165.5 620.5C1089.34 609.866 1046.66 610.425 970.5 620.5L949.197 624.051C923.439 628.344 898.056 634.648 873.283 642.906L850.5 650.5L785.5 680.5L751.089 701.147C724.103 717.338 698.875 736.294 675.814 757.709L660.649 771.79C647.254 784.229 635.215 798.051 624.732 813.026C611.964 831.266 601.603 851.077 593.906 871.969L570.5 935.5C563.853 965.41 560.5 995.958 560.5 1026.6V1059.27C560.5 1086.65 563.858 1113.93 570.5 1140.5L574.654 1151.92C585.18 1180.87 599.135 1208.45 616.22 1234.08C632.355 1258.28 651.175 1280.58 672.323 1300.55L695.843 1322.77C718.896 1344.54 743.966 1364.07 770.717 1381.09L797.85 1398.36C826.211 1416.41 856.32 1431.55 887.719 1443.55L1010.5 1490.5L1117.98 1528.89C1139.56 1536.59 1159.96 1547.25 1178.6 1560.57C1206.24 1580.31 1233.02 1604.36 1242 1637.12C1244.14 1644.92 1245.26 1652.4 1245.38 1659.81C1246.19 1709.9 1201.01 1749.65 1153.82 1766.5C1126.87 1776.13 1098.9 1779.65 1060.5 1780.5C1009.05 1779.71 975.658 1773.74 941.057 1758.31C906.012 1742.69 875.5 1717.81 852.267 1687.27C831.75 1660.3 817.499 1632.56 800.5 1590.5Z" fill="#24509A"/>
<path d="M1830.5 640.5L1700.5 2060.5H2060.5L2125.5 1300.5L2430.5 2040.5H2670.5L2975.5 1300.5L3040.5 2060.5H3400.5L3270.5 640.5H2915.5L2550.5 1530.5L2185.5 640.5H1830.5Z" fill="#24509A"/>
<path d="M4550.5 1760.5V2060.5H3580.5V640.5H4550.5V940.5H3940.5V1210.5H4470.5V1500.5H3940.5V1760.5H4550.5Z" fill="#24509A"/>
<path d="M5490.66 961.34C5412.58 961.34 5369.86 926.3 5362.5 856.22L5408.1 849.98C5411.94 873.98 5420.58 891.58 5434.02 902.78C5447.78 913.98 5467.62 919.58 5493.54 919.58C5514.98 919.58 5531.78 914.94 5543.94 905.66C5556.42 896.06 5562.66 882.94 5562.66 866.3C5562.66 850.62 5556.74 839.26 5544.9 832.22C5533.06 824.86 5514.66 818.14 5489.7 812.06C5467.94 806.94 5449.06 800.86 5433.06 793.82C5417.38 786.78 5405.22 777.02 5396.58 764.54C5387.94 751.74 5383.62 734.46 5383.62 712.7C5383.62 693.18 5388.58 675.9 5398.5 660.86C5408.42 645.5 5422.02 633.5 5439.3 624.86C5456.58 616.22 5476.26 611.9 5498.34 611.9C5529.06 611.9 5554.02 620.06 5573.22 636.38C5592.74 652.7 5604.26 675.26 5607.78 704.06L5565.06 711.26C5557.7 672.86 5534.98 653.66 5496.9 653.66C5477.38 653.66 5461.7 658.94 5449.86 669.5C5438.02 679.74 5432.1 693.34 5432.1 710.3C5432.1 727.9 5438.18 741.02 5450.34 749.66C5462.5 757.98 5481.86 765.02 5508.42 770.78C5529.54 775.58 5547.78 781.34 5563.14 788.06C5578.5 794.78 5590.34 804.06 5598.66 815.9C5606.98 827.74 5611.14 843.9 5611.14 864.38C5611.14 883.58 5606.02 900.54 5595.78 915.26C5585.54 929.66 5571.3 941.02 5553.06 949.34C5535.14 957.34 5514.34 961.34 5490.66 961.34ZM5880.99 658.46H5721.15V764.06H5875.23V805.82H5721.15V915.74H5887.23L5883.39 957.5H5673.63V616.7H5880.99V658.46ZM6222.27 891.74C6209.47 914.46 6191.71 931.9 6168.99 944.06C6146.27 955.9 6120.51 961.82 6091.71 961.82C6058.43 961.82 6029.63 955.1 6005.31 941.66C5981.31 927.9 5962.91 908.54 5950.11 883.58C5937.31 858.3 5930.91 828.22 5930.91 793.34C5930.91 757.5 5937.95 725.98 5952.03 698.78C5966.43 671.58 5986.27 650.3 6011.55 634.94C6036.83 619.58 6066.27 611.9 6099.87 611.9C6155.55 611.9 6196.51 633.82 6222.75 677.66L6185.31 705.5C6176.03 688.86 6164.03 676.54 6149.31 668.54C6134.59 660.22 6117.79 656.06 6098.91 656.06C6075.55 656.06 6054.91 661.82 6036.99 673.34C6019.39 684.86 6005.47 701.02 5995.23 721.82C5985.31 742.3 5980.35 765.98 5980.35 792.86C5980.35 832.22 5990.11 862.78 6009.63 884.54C6029.47 906.3 6056.99 917.18 6092.19 917.18C6112.67 917.18 6130.91 912.7 6146.91 903.74C6162.91 894.78 6175.87 881.34 6185.79 863.42L6222.27 891.74ZM6524.78 910.46L6535.82 947.9C6524.62 956.54 6509.42 960.86 6490.22 960.86C6474.86 960.86 6460.94 957.5 6448.46 950.78C6435.98 943.74 6424.46 932.22 6413.9 916.22L6356.78 830.78C6347.18 816.38 6336.14 809.18 6323.66 809.18H6315.98V957.5H6268.46V616.7H6368.78C6409.42 616.7 6440.3 625.34 6461.42 642.62C6482.54 659.58 6493.1 682.94 6493.1 712.7C6493.1 732.86 6488.46 749.82 6479.18 763.58C6469.9 777.34 6457.26 787.9 6441.26 795.26C6425.26 802.62 6407.5 806.94 6387.98 808.22C6396.94 813.02 6405.74 821.66 6414.38 834.14L6450.86 887.9C6458.86 900.06 6465.9 908.22 6471.98 912.38C6478.38 916.22 6486.86 918.14 6497.42 918.14C6507.34 918.14 6516.46 915.58 6524.78 910.46ZM6365.42 656.54H6315.98V770.78H6361.58C6388.78 770.78 6409.42 766.3 6423.5 757.34C6437.9 748.06 6445.1 733.5 6445.1 713.66C6445.1 695.42 6438.54 681.34 6425.42 671.42C6412.3 661.5 6392.3 656.54 6365.42 656.54ZM6775.11 658.46H6615.27V764.06H6769.35V805.82H6615.27V915.74H6781.35L6777.51 957.5H6567.75V616.7H6775.11V658.46ZM7069.39 616.7L7064.59 658.94H6956.59V957.5H6908.11V658.94H6797.23V616.7H7069.39ZM7043.12 957.5L7186.64 616.7H7227.92L7365.68 957.5H7316.24L7283.12 872.54H7127.12L7092.56 957.5H7043.12ZM7143.92 831.26H7267.28L7206.8 676.22L7143.92 831.26ZM7671.77 910.46L7682.81 947.9C7671.61 956.54 7656.41 960.86 7637.21 960.86C7621.85 960.86 7607.93 957.5 7595.45 950.78C7582.97 943.74 7571.45 932.22 7560.89 916.22L7503.77 830.78C7494.17 816.38 7483.13 809.18 7470.65 809.18H7462.97V957.5H7415.45V616.7H7515.77C7556.41 616.7 7587.29 625.34 7608.41 642.62C7629.53 659.58 7640.09 682.94 7640.09 712.7C7640.09 732.86 7635.45 749.82 7626.17 763.58C7616.89 777.34 7604.25 787.9 7588.25 795.26C7572.25 802.62 7554.49 806.94 7534.97 808.22C7543.93 813.02 7552.73 821.66 7561.37 834.14L7597.85 887.9C7605.85 900.06 7612.89 908.22 7618.97 912.38C7625.37 916.22 7633.85 918.14 7644.41 918.14C7654.33 918.14 7663.45 915.58 7671.77 910.46ZM7512.41 656.54H7462.97V770.78H7508.57C7535.77 770.78 7556.41 766.3 7570.49 757.34C7584.89 748.06 7592.09 733.5 7592.09 713.66C7592.09 695.42 7585.53 681.34 7572.41 671.42C7559.29 661.5 7539.29 656.54 7512.41 656.54ZM7714.74 957.5V616.7H7763.22V957.5H7714.74ZM7811.14 957.5L7954.66 616.7H7995.94L8133.7 957.5H8084.26L8051.14 872.54H7895.14L7860.58 957.5H7811.14ZM7911.94 831.26H8035.3L7974.82 676.22L7911.94 831.26ZM5385.06 1509.5L5398.98 1168.7H5443.62L5572.74 1449.02L5701.86 1168.7H5746.5L5758.02 1509.5H5711.46L5703.3 1266.14L5590.5 1509.5H5551.62L5440.74 1267.58L5430.18 1509.5H5385.06ZM6060.35 1168.7H6108.35L6109.31 1347.74C6109.31 1400.54 6097.31 1441.5 6073.31 1470.62C6049.31 1499.42 6014.43 1513.82 5968.67 1513.82C5921.95 1513.82 5887.07 1501.66 5864.03 1477.34C5840.99 1453.02 5829.47 1415.42 5829.47 1364.54V1168.7H5878.43V1361.18C5878.43 1399.26 5885.63 1426.78 5900.03 1443.74C5914.75 1460.7 5937.47 1469.18 5968.19 1469.18C6000.19 1469.18 6023.71 1459.26 6038.75 1439.42C6053.79 1419.26 6061.15 1388.22 6060.83 1346.3L6060.35 1168.7ZM6409.99 1168.7H6456.55V1509.5H6414.31L6229.03 1249.82V1509.5H6182.47V1168.7H6224.71L6409.99 1428.38V1168.7ZM6530.75 1509.5V1168.7H6579.23V1509.5H6530.75ZM6932.91 1443.74C6920.11 1466.46 6902.35 1483.9 6879.63 1496.06C6856.91 1507.9 6831.15 1513.82 6802.35 1513.82C6769.07 1513.82 6740.27 1507.1 6715.95 1493.66C6691.95 1479.9 6673.55 1460.54 6660.75 1435.58C6647.95 1410.3 6641.55 1380.22 6641.55 1345.34C6641.55 1309.5 6648.59 1277.98 6662.67 1250.78C6677.07 1223.58 6696.91 1202.3 6722.19 1186.94C6747.47 1171.58 6776.91 1163.9 6810.51 1163.9C6866.19 1163.9 6907.15 1185.82 6933.39 1229.66L6895.95 1257.5C6886.67 1240.86 6874.67 1228.54 6859.95 1220.54C6845.23 1212.22 6828.43 1208.06 6809.55 1208.06C6786.19 1208.06 6765.55 1213.82 6747.63 1225.34C6730.03 1236.86 6716.11 1253.02 6705.87 1273.82C6695.95 1294.3 6690.99 1317.98 6690.99 1344.86C6690.99 1384.22 6700.75 1414.78 6720.27 1436.54C6740.11 1458.3 6767.63 1469.18 6802.83 1469.18C6823.31 1469.18 6841.55 1464.7 6857.55 1455.74C6873.55 1446.78 6886.51 1433.34 6896.43 1415.42L6932.91 1443.74ZM6969.5 1509.5V1168.7H7017.98V1509.5H6969.5ZM7140.3 1509.5H7092.78V1168.7H7207.5C7249.1 1168.7 7281.1 1177.34 7303.5 1194.62C7326.22 1211.9 7337.58 1237.18 7337.58 1270.46C7337.58 1303.42 7325.74 1329.34 7302.06 1348.22C7278.38 1367.1 7242.7 1376.54 7195.02 1376.54H7140.3V1509.5ZM7204.14 1208.54H7140.3V1336.22H7197.42C7230.06 1336.22 7253.42 1330.78 7267.5 1319.9C7281.9 1309.02 7289.1 1292.7 7289.1 1270.94C7289.1 1249.18 7282.22 1233.34 7268.46 1223.42C7254.7 1213.5 7233.26 1208.54 7204.14 1208.54ZM7313.65 1509.5L7457.17 1168.7H7498.45L7636.21 1509.5H7586.77L7553.65 1424.54H7397.65L7363.09 1509.5H7313.65ZM7414.45 1383.26H7537.81L7477.33 1228.22L7414.45 1383.26ZM7676.38 1509.5V1168.7H7724.86V1467.26H7880.86L7877.02 1509.5H7676.38ZM8028.41 1509.5V1168.7H8121.53C8254.33 1168.7 8320.73 1225.02 8320.73 1337.66C8320.73 1372.86 8313.21 1403.42 8298.17 1429.34C8283.45 1454.94 8262.33 1474.78 8234.81 1488.86C8207.29 1502.62 8174.65 1509.5 8136.89 1509.5H8028.41ZM8076.89 1466.3H8134.97C8179.77 1466.3 8213.69 1455.58 8236.73 1434.14C8259.77 1412.7 8271.29 1381.34 8271.29 1340.06C8271.29 1296.86 8259.61 1264.7 8236.25 1243.58C8212.89 1222.46 8177.05 1211.9 8128.73 1211.9H8076.89V1466.3ZM8590.61 1210.46H8430.77V1316.06H8584.85V1357.82H8430.77V1467.74H8596.85L8593.01 1509.5H8383.25V1168.7H8590.61V1210.46ZM5615.94 1788.38H5459.46V1856.06H5605.86V1923.74H5459.46V1993.82H5620.74L5615.94 2061.5H5382.66V1720.7H5615.94V1788.38ZM5651.03 2061.5V1720.7H5761.43C5828.63 1720.7 5879.35 1734.94 5913.59 1763.42C5947.83 1791.9 5964.95 1834.14 5964.95 1890.14C5964.95 1924.06 5957.27 1953.82 5941.91 1979.42C5926.55 2005.02 5905.11 2025.18 5877.59 2039.9C5850.07 2054.3 5818.23 2061.5 5782.07 2061.5H5651.03ZM5729.27 1991.9H5778.71C5813.59 1991.9 5839.99 1983.58 5857.91 1966.94C5876.15 1949.98 5885.27 1925.18 5885.27 1892.54C5885.27 1857.98 5875.83 1832.38 5856.95 1815.74C5838.39 1798.78 5809.75 1790.3 5771.03 1790.3H5729.27V1991.9ZM6227.91 1720.7H6305.67L6306.63 1905.02C6306.63 1937.34 6300.55 1965.66 6288.39 1989.98C6276.23 2014.3 6258.95 2033.18 6236.55 2046.62C6214.15 2059.74 6187.75 2066.3 6157.35 2066.3C6106.79 2066.3 6068.39 2053.82 6042.15 2028.86C6016.23 2003.9 6003.27 1966.62 6003.27 1917.02V1720.7H6081.51V1910.78C6081.51 1941.18 6088.07 1963.1 6101.19 1976.54C6114.31 1989.98 6132.71 1996.7 6156.39 1996.7C6179.75 1996.7 6197.67 1989.02 6210.15 1973.66C6222.95 1957.98 6229.19 1933.66 6228.87 1900.7L6227.91 1720.7ZM6659.81 1994.78C6645.73 2017.82 6626.37 2035.58 6601.73 2048.06C6577.09 2060.22 6549.73 2066.3 6519.65 2066.3C6482.85 2066.3 6451.33 2059.58 6425.09 2046.14C6399.17 2032.7 6379.17 2013.5 6365.09 1988.54C6351.33 1963.26 6344.45 1933.02 6344.45 1897.82C6344.45 1861.66 6352.13 1829.98 6367.49 1802.78C6382.85 1775.58 6404.13 1754.3 6431.33 1738.94C6458.85 1723.58 6490.53 1715.9 6526.37 1715.9C6557.73 1715.9 6584.13 1721.66 6605.57 1733.18C6627.33 1744.7 6645.57 1762.14 6660.29 1785.5L6600.29 1828.22C6592.61 1813.5 6582.05 1802.78 6568.61 1796.06C6555.17 1789.34 6540.77 1785.98 6525.41 1785.98C6505.25 1785.98 6487.65 1790.62 6472.61 1799.9C6457.57 1809.18 6445.73 1822.14 6437.09 1838.78C6428.77 1855.42 6424.61 1874.62 6424.61 1896.38C6424.61 1928.06 6432.93 1952.7 6449.57 1970.3C6466.21 1987.9 6489.73 1996.7 6520.13 1996.7C6536.45 1996.7 6551.81 1992.86 6566.21 1985.18C6580.93 1977.18 6592.77 1965.18 6601.73 1949.18L6659.81 1994.78ZM6632.77 2061.5L6780.61 1720.7H6846.37L6988.45 2061.5H6908.77L6881.41 1991.9H6740.77L6712.45 2061.5H6632.77ZM6767.65 1926.62H6855.49L6812.29 1816.7L6767.65 1926.62ZM7292.64 1994.78C7278.56 2017.82 7259.2 2035.58 7234.56 2048.06C7209.92 2060.22 7182.56 2066.3 7152.48 2066.3C7115.68 2066.3 7084.16 2059.58 7057.92 2046.14C7032 2032.7 7012 2013.5 6997.92 1988.54C6984.16 1963.26 6977.28 1933.02 6977.28 1897.82C6977.28 1861.66 6984.96 1829.98 7000.32 1802.78C7015.68 1775.58 7036.96 1754.3 7064.16 1738.94C7091.68 1723.58 7123.36 1715.9 7159.2 1715.9C7190.56 1715.9 7216.96 1721.66 7238.4 1733.18C7260.16 1744.7 7278.4 1762.14 7293.12 1785.5L7233.12 1828.22C7225.44 1813.5 7214.88 1802.78 7201.44 1796.06C7188 1789.34 7173.6 1785.98 7158.24 1785.98C7138.08 1785.98 7120.48 1790.62 7105.44 1799.9C7090.4 1809.18 7078.56 1822.14 7069.92 1838.78C7061.6 1855.42 7057.44 1874.62 7057.44 1896.38C7057.44 1928.06 7065.76 1952.7 7082.4 1970.3C7099.04 1987.9 7122.56 1996.7 7152.96 1996.7C7169.28 1996.7 7184.64 1992.86 7199.04 1985.18C7213.76 1977.18 7225.6 1965.18 7234.56 1949.18L7292.64 1994.78ZM7139.52 2168.54C7129.6 2168.54 7118.56 2167.42 7106.4 2165.18C7094.56 2163.26 7085.28 2160.7 7078.56 2157.5L7093.44 2121.5C7099.52 2123.74 7106.88 2125.66 7115.52 2127.26C7124.16 2128.86 7132.16 2129.66 7139.52 2129.66C7151.68 2129.66 7157.76 2126.3 7157.76 2119.58C7157.76 2117.02 7156.48 2114.94 7153.92 2113.34C7151.68 2111.74 7147.04 2110.94 7140 2110.94H7108.8L7137.12 2052.86H7183.68L7173.12 2077.82C7202.24 2083.58 7216.8 2097.82 7216.8 2120.54C7216.8 2135.26 7210.08 2146.94 7196.64 2155.58C7183.2 2164.22 7164.16 2168.54 7139.52 2168.54ZM7265.6 2061.5L7413.44 1720.7H7479.2L7621.28 2061.5H7541.6L7514.24 1991.9H7373.6L7345.28 2061.5H7265.6ZM7400.48 1926.62H7488.32L7445.12 1816.7L7400.48 1926.62ZM7482.56 1692.86C7473.28 1692.86 7463.68 1690.78 7453.76 1686.62C7443.84 1682.46 7434.4 1678.3 7425.44 1674.14C7416.48 1669.66 7408.48 1667.42 7401.44 1667.42C7396.96 1667.42 7391.84 1669.34 7386.08 1673.18C7380.64 1676.7 7376.16 1681.98 7372.64 1689.02L7345.28 1665.02C7349.76 1647.74 7357.44 1634.78 7368.32 1626.14C7379.2 1617.5 7392 1613.18 7406.72 1613.18C7416 1613.18 7425.6 1615.42 7435.52 1619.9C7445.44 1624.06 7454.88 1628.22 7463.84 1632.38C7473.12 1636.54 7481.12 1638.62 7487.84 1638.62C7493.28 1638.62 7498.56 1636.86 7503.68 1633.34C7509.12 1629.82 7513.44 1624.22 7516.64 1616.54L7544 1640.54C7539.52 1657.82 7531.84 1670.94 7520.96 1679.9C7510.08 1688.54 7497.28 1692.86 7482.56 1692.86ZM7781.95 2066.3C7746.11 2066.62 7715.39 2060.06 7689.79 2046.62C7664.19 2033.18 7644.51 2013.82 7630.75 1988.54C7616.99 1963.26 7610.11 1932.86 7610.11 1897.34C7610.11 1861.82 7617.31 1830.46 7631.71 1803.26C7646.43 1775.74 7667.07 1754.3 7693.63 1738.94C7720.19 1723.58 7751.71 1715.9 7788.19 1715.9C7820.51 1715.9 7848.83 1722.94 7873.15 1737.02C7897.47 1751.1 7916.35 1770.78 7929.79 1796.06C7943.55 1821.02 7950.43 1850.46 7950.43 1884.38C7950.43 1920.86 7943.23 1952.7 7928.83 1979.9C7914.43 2007.1 7894.43 2028.22 7868.83 2043.26C7843.55 2058.3 7814.59 2065.98 7781.95 2066.3ZM7779.07 1996.7C7806.27 1996.7 7828.35 1986.94 7845.31 1967.42C7862.27 1947.58 7870.75 1920.22 7870.75 1885.34C7870.75 1854.94 7863.07 1830.78 7847.71 1812.86C7832.35 1794.62 7811.71 1785.5 7785.79 1785.5C7766.91 1785.5 7750.27 1790.14 7735.87 1799.42C7721.47 1808.7 7710.11 1821.66 7701.79 1838.3C7693.79 1854.62 7689.79 1873.82 7689.79 1895.9C7689.79 1927.9 7697.63 1952.7 7713.31 1970.3C7729.31 1987.9 7751.23 1996.7 7779.07 1996.7Z" fill="#263A7E"/>
<rect x="0.5" y="0.5" width="8950" height="100" fill="#2FA3D9"/>
<rect x="0.5" y="2620.5" width="5050" height="90" fill="#24509A"/>
</svg>
